<svg xmlns="http://www.w3.org/2000/svg" viewBox="0 0 640 360" width="640" height="360">
<defs><linearGradient id="g0" x1="0" y1="0" x2="1" y2="1"><stop offset="0" stop-color="#1D6F42"/><stop offset="1" stop-color="1D6F42"/></linearGradient></defs>
<rect width="640" height="360" fill="url(#g0)"/><line x1="0" y1="0" x2="0" y2="360" stroke="#ffffff" stroke-opacity="0.06"/><line x1="40" y1="0" x2="40" y2="360" stroke="#ffffff" stroke-opacity="0.06"/><line x1="80" y1="0" x2="80" y2="360" stroke="#ffffff" stroke-opacity="0.06"/><line x1="120" y1="0" x2="120" y2="360" stroke="#ffffff" stroke-opacity="0.06"/><line x1="160" y1="0" x2="160" y2="360" stroke="#ffffff" stroke-opacity="0.06"/><line x1="200" y1="0" x2="200" y2="360" stroke="#ffffff" stroke-opacity="0.06"/><line x1="240" y1="0" x2="240" y2="360" stroke="#ffffff" stroke-opacity="0.06"/><line x1="280" y1="0" x2="280" y2="360" stroke="#ffffff" stroke-opacity="0.06"/><line x1="320" y1="0" x2="320" y2="360" stroke="#ffffff" stroke-opacity="0.06"/><line x1="360" y1="0" x2="360" y2="360" stroke="#ffffff" stroke-opacity="0.06"/><line x1="400" y1="0" x2="400" y2="360" stroke="#ffffff" stroke-opacity="0.06"/><line x1="440" y1="0" x2="440" y2="360" stroke="#ffffff" stroke-opacity="0.06"/><line x1="480" y1="0" x2="480" y2="360" stroke="#ffffff" stroke-opacity="0.06"/><line x1="520" y1="0" x2="520" y2="360" stroke="#ffffff" stroke-opacity="0.06"/><line x1="560" y1="0" x2="560" y2="360" stroke="#ffffff" stroke-opacity="0.06"/><line x1="600" y1="0" x2="600" y2="360" stroke="#ffffff" stroke-opacity="0.06"/><line x1="0" y1="0" x2="640" y2="360" stroke="#ffffff" stroke-opacity="0.06"/><line x1="0" y1="40" x2="640" y2="360" stroke="#ffffff" stroke-opacity="0.06"/><line x1="0" y1="80" x2="640" y2="360" stroke="#ffffff" stroke-opacity="0.06"/><line x1="0" y1="120" x2="640" y2="360" stroke="#ffffff" stroke-opacity="0.06"/><line x1="0" y1="160" x2="640" y2="360" stroke="#ffffff" stroke-opacity="0.06"/><line x1="0" y1="200" x2="640" y2="360" stroke="#ffffff" stroke-opacity="0.06"/><line x1="0" y1="240" x2="640" y2="360" stroke="#ffffff" stroke-opacity="0.06"/><line x1="0" y1="280" x2="640" y2="360" stroke="#ffffff" stroke-opacity="0.06"/><line x1="0" y1="320" x2="640" y2="360" stroke="#ffffff" stroke-opacity="0.06"/>
<g transform="translate(486,150) scale(4.2)" fill="none" stroke="#ffffff" stroke-opacity="0.5" stroke-width="2" stroke-linecap="round" stroke-linejoin="round"><circle cx="32" cy="32" r="20"/><path d="M32 22v20M27 27h8a4 4 0 0 1 0 8h-6a4 4 0 0 0 0 8h9"/></g>
<text x="44" y="150" fill="#ffffff" font-family="Inter,Arial" font-size="20" font-weight="800" opacity="0.85">CATEGORÍA 1</text>
<text x="44" y="196" fill="#ffffff" font-family="Inter,Arial" font-size="38" font-weight="900">Finanzas</text>
<text x="46" y="240" fill="#eafff4" font-family="Inter,Arial" font-size="18" font-weight="700" opacity="0.9">12 planillas · listas para usar</text>
<g transform="translate(44,270)"><rect width="150" height="34" rx="17" fill="#ffffff" fill-opacity="0.16"/><text x="75" y="22" fill="#fff" font-family="Inter,Arial" font-size="14" font-weight="800" text-anchor="middle">Excel · Google Sheets</text></g>
</svg>